<svg viewBox="0 0 1024 1024" xmlns="http://www.w3.org/2000/svg">
<title>Orifold - origami crane</title>
<defs>
<clipPath id="b-clip"><rect x="6" y="6" width="1012" height="1012" rx="226"/></clipPath>
<linearGradient id="b-tile" x1="0" y1="1" x2="1" y2="0">
<stop offset="0" stop-color="#1b2f4e"/>
<stop offset="0.52" stop-color="#2a4a6e"/>
<stop offset="1" stop-color="#5da9c2"/>
</linearGradient>
<radialGradient id="b-sun" cx="0.42" cy="0.38" r="0.72">
<stop offset="0" stop-color="#e63d38"/>
<stop offset="1" stop-color="#c93430"/>
</radialGradient>
<radialGradient id="b-glow" cx="0.5" cy="0.5" r="0.5">
<stop offset="0.78" stop-color="#e63d38" stop-opacity="0.22"/>
<stop offset="1" stop-color="#e63d38" stop-opacity="0"/>
</radialGradient>
<linearGradient id="b-paper" x1="0" y1="0" x2="0.6" y2="1">
<stop offset="0" stop-color="#fffbf5"/>
<stop offset="1" stop-color="#f2f0ea"/>
</linearGradient>
<radialGradient id="b-vin" cx="0.24" cy="0.9" r="1.1">
<stop offset="0.55" stop-color="#0d1626" stop-opacity="0"/>
<stop offset="1" stop-color="#0d1626" stop-opacity="0.18"/>
</radialGradient>
</defs>
<g clip-path="url(#b-clip)">
<rect x="6" y="6" width="1012" height="1012" fill="url(#b-tile)"/>
<rect x="6" y="6" width="1012" height="1012" fill="url(#b-vin)"/>
<rect x="46" y="46" width="932" height="932" rx="190" fill="none" stroke="#ffffff" stroke-opacity="0.07" stroke-width="3"/>
<circle cx="655" cy="385" r="330" fill="url(#b-glow)"/>
<circle cx="655" cy="385" r="268" fill="url(#b-sun)"/>
<path fill="url(#b-paper)" d="M848 312 L756 262 L575 468 L500 190 L430 392 L252 168 L360 545 L330 655 L118 788 L438 742 L640 505 L726 362 Z"/>
<path fill="#c9d0da" d="M575 468 L500 190 L430 392 Z"/>
<path fill="#dde2e8" d="M330 655 L118 788 L438 742 L640 505 Z"/>
<path fill="#d5dbe3" d="M736 322 L612 480 L640 505 L726 362 Z"/>
<path fill="#dfe4ea" d="M741 312 L848 312 L726 362 Z"/>
<path stroke="#ffffff" stroke-opacity="0.3" stroke-width="4" stroke-linecap="round" d="M338 650 L632 510"/>
</g>
</svg>
