<svg viewBox="0 0 1024 1024" xmlns="http://www.w3.org/2000/svg">
<title>Orifold - origami crane</title>
<defs>
<linearGradient id="e-bg" x1="0" y1="1" x2="1" y2="0">
<stop offset="0" stop-color="#22364f"/>
<stop offset="0.52" stop-color="#37648a"/>
<stop offset="1" stop-color="#5ea6c0"/>
</linearGradient>
<linearGradient id="e-sheet" x1="0" y1="0" x2="0" y2="1">
<stop offset="0" stop-color="#fffbf5"/>
<stop offset="1" stop-color="#efeadf"/>
</linearGradient>
<linearGradient id="e-wing" x1="0" y1="0" x2="0.25" y2="1">
<stop offset="0" stop-color="#fffdf8"/>
<stop offset="1" stop-color="#e9e3d7"/>
</linearGradient>
<linearGradient id="e-flap" x1="0" y1="0" x2="1" y2="1">
<stop offset="0" stop-color="#e4e9ef"/>
<stop offset="1" stop-color="#c6cedb"/>
</linearGradient>
<radialGradient id="e-shadow" cx="0.5" cy="0.5" r="0.5">
<stop offset="0" stop-color="#14243a" stop-opacity="0.5"/>
<stop offset="1" stop-color="#14243a" stop-opacity="0"/>
</radialGradient>
<clipPath id="e-clip"><rect x="6" y="6" width="1012" height="1012" rx="226"/></clipPath>
</defs>
<g clip-path="url(#e-clip)">
<rect x="6" y="6" width="1012" height="1012" fill="url(#e-bg)"/>
<rect x="30" y="30" width="964" height="964" rx="202" fill="none" stroke="#ffffff" stroke-opacity="0.08" stroke-width="3"/>
<ellipse cx="345" cy="914" rx="255" ry="38" fill="url(#e-shadow)" opacity="0.55"/>
<path fill="url(#e-sheet)" d="M166,370 H450 L540,460 V884 Q540,910 514,910 H166 Q140,910 140,884 V396 Q140,370 166,370 Z"/>
<path d="M172,632 H508" stroke="#ddd6c8" stroke-opacity="0.6" stroke-width="2.5"/>
<path fill="#1a2a41" opacity="0.15" d="M450,374 L458,466 L550,466 Z"/>
<path fill="url(#e-flap)" d="M450,370 L540,460 L450,460 Z"/><path d="M450,370 L540,460" stroke="#ffffff" stroke-opacity="0.5" stroke-width="2"/>
<ellipse cx="585" cy="442" rx="98" ry="40" fill="url(#e-shadow)" opacity="0.45" transform="rotate(-32 585 442)"/>
<path fill="#aebbcb" d="M550,395 L610,438 L466,452 Z"/>
<path fill="#c2cbd7" d="M558,398 L570,115 L662,212 L640,390 Z"/>
<path fill="url(#e-wing)" d="M645,392 L662,212 L758,80 L722,382 Z"/><path fill="#eee8db" d="M722,382 L758,80 L800,370 Z"/><path d="M758,80 L722,382" stroke="#ffffff" stroke-opacity="0.3" stroke-width="2"/>
<path fill="#f8f4ec" d="M550,395 L680,310 L810,375 Z"/>
<path fill="#c3cbd8" d="M550,395 L810,375 L685,448 Z"/>
<path fill="#faf6ee" d="M725,350 L905,242 L915,256 L765,400 Z"/>
<path fill="#fffbf5" d="M898,240 L935,222 L970,258 Z"/>
<path fill="#cfd6e0" d="M898,240 L970,258 L922,266 Z"/>
<path d="M550,395 L810,375" stroke="#ffffff" stroke-opacity="0.5" stroke-width="2.5"/>
<path d="M725,350 L905,242" stroke="#ffffff" stroke-opacity="0.35" stroke-width="2"/>
<circle cx="933" cy="233" r="7" fill="#e63d38"/>
</g>
</svg>
